<svg id="Capa_1" data-name="Capa 1" xmlns="http://www.w3.org/2000/svg" viewBox="0 0 392.29 392.29"><defs><style>.cls-1{fill:#131313;}.cls-2{fill:#f5e722;}</style></defs><circle class="cls-1" cx="196.15" cy="196.15" r="182.01"/><path class="cls-2" d="M255.2,109.4l1.32,2q-7.21,5.4-7.21,6.55c1.31,0,2,.44,2,1.31-1.09,0-1.74.88-2,2.62L246,123.16l2,3.28c1.31,0,2-1.31,2-3.93h.66a6.09,6.09,0,0,0,3.93,2l-1.31,3.93,2.62,3.94v1.31h-1.31l-.66.65-2-2h-.66q-3.77,2.44-3.93,3.93l.66,3.93h2.62v-1.31h2l2.62,2,.66-.65.66.65-.66.66v2h2l2-2-2-.66v-2l.65-3.28-1.31-1.31v-.65l2-.66c-.22-3.49-1.1-5.24-2.62-5.24v-2.62c0-1.2,1.09-1.86,3.27-2v-2h-3.27v-.66l2-3.28-.65-2h.65l4.59-2,2.62.66.65-2.62,5.25,2,3.93-.65,2,2h.66v-1.31l-.66-.65V112l.66-.65h3.93l13.76,3.27.66-.65H303l3.28-.66c0,1.31.87,2,2.62,2v1.31c-1.31,0-2,.44-2,1.31q4.26,3.43,4.59,5.9l.65.65h.66l.65-.65.66.65h2v-1.31c-1.31,0-2-.43-2-1.31v-1.31l2.62-.65,1.31,1.31h.65c2.19,0,3.28-.66,3.28-2h.66l2,1.31.66-.65H326l4.59,2-1.31,3.93h.65l-1.31,2.62L329.9,131l-.65,2h.65c.88,0,1.31-.65,1.31-2h2l1.31,4.59h-5.24l2,2h.66l.65-.66h.66l.66.66v.65l-3.94,4.59,2,2q-1.32,4.58-3.93,4.58l-3.28,1.31V150l-2,.65v.66c4.36,2.4,6.77,4.37,7.2,5.9v.65l-1.31,1.31h-.65c0-1.31-.44-2-1.31-2l-.66.65v.66l.66.65h.65c-.65,4.37-1.53,6.55-2.62,6.55l.66.66v2l-2.62,3.94h-1.31q-4.92,0-9.83-5.9h-.66l1.31,4.58L307,172.31H294.52l-2-2,.66-2q0-9.83-5.24-15.07,0-7.2-29.49-7.2l-2.62.65.66,6.55-.66,4.59.66,2.62h-.66l.66.66v13.1l-.66.66v.65l-8.52-3.93q-8.52.49-8.52,1.31l-3.27-.65H224.41l-.66-3.28,2-3.93v-.66c-1.31,0-2-.43-2-1.31l1.31-4.58q-1.31-1.16-2-15.73l.65-7.86-.65-.66v-.65l1.31-5.9-1.31-9.17q1.64-4.59,2.62-4.59H229l6.55.65L246,113.33V112l-3.27-.65,1.31-1.31c3.05.43,4.58,1.09,4.58,2C251.82,111.48,254,110.6,255.2,109.4Zm49.15,76.67h1.31l4.59,2.62a19.63,19.63,0,0,1,9.17-2q4.26,0,5.9,6.55l-.66,2.62,2.62.66,2.62-.66h1.31c0,1.32-2,2-5.89,2l-1.31,2v.65l.65.66v.65l-.65.66,2.62,1.31v.65q-4.75,0-6.55,11.8a53.61,53.61,0,0,1-12.45,15.72q3.11,16.4,5.24,16.39l-.66.65v.66c.44,4.37,1.09,6.55,2,6.55l-.66.65v.66l5.9,22.28L326,306l-.65.65v.66a42.16,42.16,0,0,1,3.93,12.45l-1.31,1.31.65,2-.65.66H306.32l-2-1.31h-.66l-2,1.31h-3.28q-2.29,0-5.9-18.35h.66q-3.93-10.65-14.42-54.38l.66-2c-.88,0-1.31-.87-1.31-2.62L275.52,245l-6.55.65-11.8-.65-.65.65v2l.65,2.62-.65,4.59V268l1.31,3.93-2,5.9.66,5.9-.66,4.59.66,7.2V306l-.66,10.48.66,4.59q-1.65,2-5.25,2v.66l-2-.66-20.31.66q-4.59.16-4.59-2.62l.65-4.59-.65-5.24.65-17.69-.65-3.28h.65l-.65-2,.65-4.59-.65-3.28,1.31-5.9-1.31-5.24v-9.17l.65-2.62-.65-2.62v-7.21l.65-.66-.65-.65v-2.62l.65-5.9-.65-.65v-.66l.65-2.62-.65-2q2.46-8.51,9.83-8.51v2h-2V226l2.62,4.58c1,0,3-1.74,5.9-5.24,1,3.93,1.86,5.9,2.62,5.9h.66c2-.66,3.71-2.62,5.24-5.9q-3.28,0-6.55-5.9l6.55-.65,3.93,1.31h1.31l.65-.66,9.83,2q1-7.86,2.62-7.86h2l.66.65h.65v-.65l2,.65.65-.65h.66l2.62.65,9.83-4.58q2-3.28,4.58-3.28l-.65-2c.65-1.74,1.31-2.62,2-2.62h.66v.66l-.66,3.93,1.32,3.93v8.52l-.66,3.93.66,3.28v.65l-2,12.45.65.66h3.94v-5.25l-1.31-5.24V222.1l.65-6.55-.65-3.93q.31-7.86,1.31-7.86l3.93-.66.65.66,1.31-2.62v-1.31c-.43-1.31-1.74-2-3.93-2l-.65,3.28q-2.62-.66-2.62-7.21c.87,0,1.31-.66,1.31-2h.65c0,2.62.44,3.93,1.31,3.93h.66Q302,187.22,304.35,186.07ZM227,220.79h1.31L227,222.1h-1.31Zm0-62.24.65.65h.66l1.31-1.31v-1.31Zm2,120.56v1.31h2v-1.31Zm25.55-91.73h.65l1.32,4.58-.66.66h.66l-.66.65.66,3.94-.66,2.62.66,5.89-.66,3.28.66.66v.65l-2,7.86q-9.18-.48-9.17-3.27c1.74,0,2.62-.44,2.62-1.31l-1.31-1.31c0,.76-1.53,1.42-4.59,2v.66l.66,4.58h-.66l-3.28,1.31h-.65l-.66-.65-.65.65h-2l-2.62-2-2.62,2v-.65c1.31-2.18,2.62-3.28,3.93-3.28l2,.66q3.6-3,3.93-6.55c2.18,0,3.28-.66,3.28-2v-.66h1.31l.65.66h.66l1.31-1.31h2l2.62,5.24h.66l.65-.65V211l-1.31-1.31,2-5.25-.66-.65h-1.31v.65l.66,2h-.66c-2.18-.33-3.27-1-3.27-2v-.65l5.24-4.59v-.65l-1.31-1.31c-.88,0-1.31.65-1.31,2l-.66.66h-.65v-2q0-2,4.58-2l1.31-2-2.62-1.31-2,.65-.66-.65ZM236.2,277.8v3.28l-1.31,1.31-2-1.31-1.31,1.31v3.27l.65-.65h4.59l.65.65h.66l-1.31,2.63h2c0-2.19.88-3.28,2.62-3.28v-.66l-2-2,1.31-2.62a6.11,6.11,0,0,1-3.93-2Zm-.65-64.87h.65v1.31h-2Zm-.66,26.21-.65.66v.65l3.27.66V239.8Zm.66-12.45h2L236.2,228l-.65-.65Zm3.27,7.86c0,.88,1.31,1.32,3.94,1.32v1.31l1.31-1.31-2-2.63h-2Zm0,11.8v1.31h2v-1.31Zm2,6.55v2l1.31,1.31,1.31-1.31-1.31-1.31,1.31-1.31,2.62,2,1.31-1.31v-.65l-3.27-.66h-2Zm.65-12.45h2v-1.31h-.65Zm4.59,36-.65.66v1.31l1.31,1.31,1.31-1.31Zm3.93-2v.66h.66l.65-.66h.66l2.62.66h.65v-2.62h-2Zm1.31-126.46v1.31h.66l1.31-1.31Zm.66,133v.65h1.31l1.31-1.31-.66-.65h-.65Zm1.31-104.19h2.62v.66c0,2.29-.66,3.6-2,3.93l-.65-.66h-.66ZM254.55,230l-.66,2h.66l-.66.66v.65l1.31,2c-1.74,0-2.62.66-2.62,2l4.59,2h2.62l2-2q0-2-5.24-2l1.31-2v-1.31l-2-2Zm-.66-46.53h.66l1.31,1.32-.66,2h-.65l-1.31-1.31Zm6.56,30.8.65.66v1.31c0,.76-1.31,1.42-3.93,2l-.65-.65v-.66C257,215.12,258.26,214.24,260.45,214.24Zm7.2,17-.65.65v.66l.65.65H269v-.65Zm3.94-15.07,3.27,3.27v.66h-2.62l-.65-.66h-.66l-.65.66v.65l1.31,1.31.65-.65,1.31,4.59a3.09,3.09,0,0,0-2.62,3.27l.66.66h2L286,221.45v-1.31l-2-.66-5.9,3.28h-2v-1.31l-.65-.66,1.31-1.31h.65q-1.64-4.24-3.27-4.58H272.9Zm0-90.43v2l2,.65.66-.65v-2Zm3.27-3.93-1.31,2,2,1.31,1.31-1.31v-1.31Zm2,14.42a6.77,6.77,0,0,1-1.31,4.58v.66h2.62l1.31-4.59-.66-.65Zm0-5.25v1.32l2.62,3.93h3.93c0-1.31.87-2,2.62-2l1.31-3.28H286c0,1.21-1.31,2.08-3.93,2.63L278.14,131Zm11.79,127.12v1.31h2l-1.31-1.31Zm8.52,41.28v.66l1.31,1.31c1.75-.65,2.62-1.31,2.62-2Zm13.11-9.82v2h2.62v-2Zm1.31,7.86-.66.65v2l2,2h.65v-2.63Zm.65,7.86v2l1.31,1.31.66-2.62-.66-.66Zm.66-110.08v1.31h2l-1.31-1.31Zm2,54.39v-1.31m5.25-124.5a5.13,5.13,0,0,1,3.93,5.24h-2v.65l.66.66V131l2.62-1.31.65.66a16.27,16.27,0,0,0,1.31-7.21v-.65l-3.93-.66C321.17,122.4,320.08,123.05,320.08,123.82Zm7.2,76.66h1.31l.66,2.62-2,1.31V203.1h-.65Zm5.24-15.07v.66l-1.31,1.31-.65-.66v-.65l.65-.66Zm1.32-60.94h.65l1.31,1.31v1.31c0,.88-.65,1.31-2,1.31l-2-.65v-1.31A1.74,1.74,0,0,0,333.84,124.47Zm2.62-2.62h2.62v1.31h-1.31Z" transform="translate(-18.65 -16.43)"/><path class="cls-2" d="M105.3,111.6l5.32.66.59-.66h.59l.59.66h.6l5.9-.66q2.07,0,5.32,17.89l3.55,4-3,4q1.33,9.93,3.55,9.94v.66L126,151.36v2l4.14,1.33-1.18,2q0,1.32,3.54,1.32v.66c0,.89-.79,1.33-2.36,1.33l-.59.66V162l1.18,2v1.32h-1.18v1.33l1.18,2-.59,2,4.73,25.85-.6,4c1.19,0,1.78.88,1.78,2.65l-.59,2h-1.19l-.59-.67h-.59v2q2.37,0,2.37,7.95h-1.19l-.59-.66h-.59l-4.13,4.64h1.77l1.77-1.32q0,2,1.77,2v.67c0,.77-2.16,1.88-6.49,3.31v.66l.59.67v.66l4.72-2h1.18v1.33q0,1.32-8.86,3.31h-.59l-.59-.66-10,4h-3.55l-1.77-10.6h.59l-.59-.66V217h.59c.79,0,1.18.88,1.18,2.65h1.77V219a6.48,6.48,0,0,1-1.77-4l-2.36.66c-4-1.55-6.2-3.09-6.5-4.64l.59-.66h3.55l.59-3.32v-1.32l-1.19-2V202.4l.6-.67L98.22,156H97l-.59-4,.59.66.59-2q-.89-4.63-3-4.64l1.18-2v-.66Q92.6,129,91.72,128.83l.59-.66v-2l-1.18-10.6v-2l1.18-1.33H99.4Zm5.91,85.49v1.33a8.24,8.24,0,0,1,3,6.63l-.59,3.31.59.66v.67L112.39,213v1.32l.6.67v.66l.59-.66h1.77c0,1.32.39,2,1.18,2h1.77l1.78-6h1.77c0,2.65.59,4,1.77,4h.59q0-4,3.55-4l.59.66V211l-3.55-4q5.17-6.61,7.68-6.62v-1.33h-.59l-6.5,2.65-1.77-.66q-1.19,1.16-1.18,6.63-3.25-1.15-10-10.61Zm59.08-84.83q4.29,0,10.05,4,1.77,0,1.77,6l2.95-.66v.66q2.37,4,2.37,6l-2.37,1.32q0,3.31,3,4c-.2,2.21-.79,3.31-1.77,3.31v4l2.36,4-.59.66v.66q1,11.92,2.36,11.93v-1.32l-.59-3.32q3.26,0,3.55-6l-3.55-1.33v-1.32l.59-.67-.59-.66v-.66l2.36-4.64c-.69-4-1.47-6-2.36-6l.59-.66v-.66l-.59-4.64.59-2q-1.19,0-1.77-6.63.73-4.64,1.77-4.64h1.18l5.91,2v-.66a3.08,3.08,0,0,1,2.36,3.31l-2.36,1.33-1.77-.66a7.4,7.4,0,0,0-1.18,4.63h-1.78v2h1.78c0-1.76,1-2.65,2.95-2.65l.59.66v.67l-4.72,27.83-.6,19.89q-1.77-2-1.77-9.28l-.59-.67h-.59l-.59,3.32,1.18,6.63v9.27l-.59,4,1.77,5.3q-5.46,0-7.68,25.19l-1.18,2,1.77,9.27-3.54,1.33v.66h2.95v1.33l-3.54,1.32,1.77,3.32q-2.37,0-4.14,21.21l-2.36,13.91.59,4h-.59L175,274l-.59,2h-.59l.59,2q-2.22,13.92-5.32,13.92L165,291.2l-3,.67q-1.77,0-3.54-5.31h-.59v2l1.18,2-1.77,2v.66l2.36.66,1.77-.66,9.45,2Q167.19,323,165,323l-4.14.66-3-.66h-23l-4.73-1.33-2.36.66h-.6q-2.2,0-8.27-41.75l.59-2-.59-2.65h1.78v-.66q-5.33,0-5.32-15.25A84.12,84.12,0,0,1,113,240.84l.59-4.64-1.19-1.33v-.66l3-1.33,2.36,1.33q0-3.15,14.77-5.3,3.56,1.32,3.55,2.65v2.65l-1.18,4,1.18,1.33v18.56l1.18-1.33v-3.31l-.59-7.29,1.18-5.3-.59-2,1.18-1.33v-.66c0-.88-.59-1.33-1.77-1.33q.44-6,1.77-6,1.19.83,1.18,8,.88,0,2.36,7.95h-.59q1.92,17.23,5.32,17.24,2.37-4.14,4.14-24.53l.59-2c2.36-.44,3.54-1.11,3.54-2l-3-.67,1.18-4L152,224.93h.59q1.34-2.33,5.32-2.65V221l-1.18-1.32-2.37.66c0-.88.59-1.33,1.77-1.33v-2h-1.18v-2l3.55-28.5v-5.3l-.59-3.32q3-4,3-10.6l-1.77-1.33-1.77,2-1.19-2v-.66l1.78-.66,3,.66L162,160l-4.13-.66v-.67c0-.88,1-1.32,3-1.32q2.35,0,6.5-33.14Q168.52,114.74,170.29,112.26Zm-57.9,112v2h1.19v-2Zm1.78-109.36v1.33l4.72.66v-1.32l-1.77-.67-.59.67h-.59Zm0,112v.66l1.18,1.33v-2Zm1.77-45.73v2l1.18,1.32.59-.66v-1.33l-1.18-1.32Zm0,40.43v2.65h.59q4.14-2.82,4.14-4l-.59-.66V219C117.32,220,115.94,220.84,115.94,221.62Zm.59-51.7v.66l1.18,1.33h.59v-2ZM117.71,152q0,1.32,4.73,3.31h1.18V154a7.82,7.82,0,0,1-4.73-2Zm3,15.9-1.19,1.33c0,1.21,1,2.32,3,3.31l.59-.66Q121.85,167.94,120.67,167.93Zm0,78.21-1.19,3.31v1.33l1.78,2,1.18-2.65-.59-.66v-.66l.59-2.65Zm0-20.55.59.66h.59q3.54-.66,3.54-2h-3.54Zm3-40.43-.59.67v.66l1.77.66v2.65c-2,.11-3,.78-3,2l1.18,1.33.59-.67c.79,0,1.18-.88,1.18-2.65h2.36v-.66Zm4.14,52.36-.6.66v.67l.6.66c2.36-.55,3.54-1.21,3.54-2l-3.54-.66Zm1.18,19.88-.59,2,.59.66h.59l1.18-2v-.67Zm5.91,33.14-1.19,9.94.59.66h.6c1.18-.44,1.77-1.76,1.77-4v-.66l-.59-3.32,1.18-1.32L136,290.54Zm-.6-7.29.6,4.64,1.18-1.33v-4.63h-.59ZM136,215h.59l1.18,1.32-.59.67h-2.36v-.67Zm2.36-58.32.59.66v2h-2.36L135.44,158ZM136,262l-.59.67.59,4.63v1.33h.59l.59-.66h.59C137.31,264,136.71,262,136,262Zm-.59,16.57.59.66h.59L137.8,278l-.59-.66h-.59ZM139,226.25v.67l-1.18,1.32-1.18-1.32.59-.67Zm-1.77,78.87v2h.59l1.18-1.33-.59-2Zm4.13-13.25v.66h2.37v-.66Zm3.55-28.5q0,1.32-1.77,1.32l-.59,2,1.18,1.33-.59,2c1.18,0,1.77.88,1.77,2.65h1.18l4.14.66V270l4.13.66,1.18-2V268l-.59.66h-1.18A27.62,27.62,0,0,0,144.89,263.37Zm1.18-68.93,1.18,1.33-1.77,1.32-.59-.66v-.66Zm1.18,96.76-1.18,2v.66l1.77.67c4.33-.44,6.5-1.11,6.5-2v-.66h-1.18Zm7.68-11.93.59,3.32h1.78l-1.19-3.32Zm1.78-40.42v2h.59l1.18-1.33-.59-.66ZM158.48,272v1.33h.59l1.18-1.33Zm3-62.29V211h1.77v-1.32Zm1.18,21.87v1.32h.59q7.68,0,7.68-2v-.66h-4.13A5.64,5.64,0,0,1,162.61,231.56ZM167.93,209v1.33h1.77V209Zm2.95,11.27.6.66h.59q10-1.65,10-4.64v-.66h-1.18Q171.18,219.3,170.88,220.29Zm1.78,9.28v1.32h1.18l1.18-1.32Zm.59-96.1v1.32l1.18,1.33H175v-1.33l-1.18-1.32ZM178,228.24v1.33l1.78-.66v-.67Zm4.14-115.32h2.36c0,.89.79,1.33,2.37,1.33v2.65l-1.78.66-2.95-.66Zm1.18,27.84v2l1.18,1.32.59-.66v-1.33l-1.18-1.32Zm8.27,2.65v.66h.59l1.19-1.32v-.67h-.6Z" transform="translate(-18.65 -16.43)"/><path class="cls-2" d="M214.79,16.43c-108.33,0-196.14,87.82-196.14,196.15s87.81,196.14,196.14,196.14,196.15-87.81,196.15-196.14S323.12,16.43,214.79,16.43Zm0,372.93A176.79,176.79,0,1,1,391.58,212.58,176.78,176.78,0,0,1,214.79,389.36Z" transform="translate(-18.65 -16.43)"/></svg>